<svg width="20" height="20" viewBox="0 0 20 20" fill="none" xmlns="http://www.w3.org/2000/svg">
<path d="M4.16699 3H17.9438C18.7116 3 19.193 3.82948 18.8121 4.49614L16.2428 8.99228C15.8867 9.61543 15.2241 10 14.5063 10H7.66699M7.66699 10L6.12324 12.47C5.70696 13.136 6.1858 14 6.97124 14H17.667M7.66699 10L3.71978 2.10557C3.38099 1.428 2.68847 1 1.93092 1H1.66699M7.66699 18C7.66699 18.5523 7.21928 19 6.66699 19C6.11471 19 5.66699 18.5523 5.66699 18C5.66699 17.4477 6.11471 17 6.66699 17C7.21928 17 7.66699 17.4477 7.66699 18ZM17.667 18C17.667 18.5523 17.2193 19 16.667 19C16.1147 19 15.667 18.5523 15.667 18C15.667 17.4477 16.1147 17 16.667 17C17.2193 17 17.667 17.4477 17.667 18Z" stroke="#B5B5B5" stroke-width="2" stroke-linecap="round" stroke-linejoin="round"/>
</svg>
